<svg width="10" height="8" viewBox="0 0 10 8" fill="none" xmlns="http://www.w3.org/2000/svg">
<path d="M0.830358 0.643232L9.16451 0.643232C9.32533 0.642266 9.48298 0.688047 9.61827 0.775008C9.75356 0.861969 9.86067 0.986362 9.92658 1.13307C9.99249 1.27977 10.0144 1.44246 9.98953 1.60136C9.9647 1.76026 9.89423 1.90853 9.78671 2.02813L5.66568 7.52756C5.53299 7.70337 5.33603 7.81943 5.11794 7.8503C4.89985 7.88117 4.67842 7.82434 4.50215 7.69226C4.43878 7.64654 4.38317 7.59093 4.33745 7.52756L0.164476 1.96909C0.0328679 1.79294 -0.0234022 1.57173 0.00803574 1.3541C0.0394737 1.13647 0.156046 0.94023 0.332127 0.808522C0.474464 0.69917 0.649095 0.640198 0.828587 0.640871L0.830358 0.643232Z" fill="white"/>
</svg>
