<?xml version="1.0" encoding="UTF-8"?>
<svg width="40px" height="40px" viewBox="0 0 40 40" version="1.1" xmlns="http://www.w3.org/2000/svg" xmlns:xlink="http://www.w3.org/1999/xlink">
    <title>OKEX</title>
    <defs>
        <polygon id="path-1" points="0 0.014342246 16.3286417 0.014342246 16.3286417 19.144385 0 19.144385"></polygon>
        <polygon id="path-3" points="0.00573262032 0.0143315508 16.3341818 0.0143315508 16.3341818 19.1443422 0.00573262032 19.1443422"></polygon>
        <polygon id="path-5" points="1.29615749e-15 0 10.8640378 0 10.8640378 10.8639922 1.29615749e-15 10.8639922"></polygon>
        <polygon id="path-7" points="1.29615749e-15 2.59231498e-15 10.8640378 2.59231498e-15 10.8640378 10.8640196 1.29615749e-15 10.8640196"></polygon>
        <polygon id="path-9" points="0 0 10.8640333 0 10.8640333 10.8640378 0 10.8640378"></polygon>
    </defs>
    <g id="polybridge-H5" stroke="none" stroke-width="1" fill="none" fill-rule="evenodd">
        <g id="画板" transform="translate(-276.000000, -30.000000)">
            <g id="OKEX" transform="translate(276.000000, 30.000000)">
                <g id="Group-Copy-2">
                    <g id="编组" fill="#FFFFFF">
                        <circle id="椭圆形" cx="20" cy="20" r="20"></circle>
                    </g>
                    <g id="Group-7" transform="translate(10.000000, 10.000000)">
                        <g id="Group-3" transform="translate(0.000000, 0.092620)">
                            <mask id="mask-2" fill="white">
                                <use xlink:href="#path-1"></use>
                            </mask>
                            <g id="Clip-2"></g>
                            <path d="M2.80147594,2.81583957 L-2.13903743e-05,0.014342246 L-2.13903743e-05,9.57936898 C-2.13903743e-05,12.0272834 0.933775401,14.4753048 2.80147594,16.3430053 C6.53687701,20.0781925 12.5931337,20.0781925 16.3286417,16.3430053 L2.80147594,2.81583957 Z" id="Fill-1" fill="#FFFFFF" mask="url(#mask-2)"></path>
                        </g>
                        <g id="Group-6" transform="translate(3.636364, 0.092620)">
                            <mask id="mask-4" fill="white">
                                <use xlink:href="#path-3"></use>
                            </mask>
                            <g id="Clip-5"></g>
                            <path d="M13.5327914,16.3428449 L13.5327914,16.3428449 L16.3341818,19.1443422 L16.3341818,9.57952941 C16.3341818,7.13140107 15.400492,4.68348663 13.5327914,2.8157861 C9.79739037,-0.919508021 3.74113369,-0.919508021 0.00573262032,2.8157861 L13.5327914,16.3428449 Z" id="Fill-4" fill="#FFFFFF" mask="url(#mask-4)"></path>
                        </g>
                    </g>
                </g>
                <g id="编组" transform="translate(8.000000, 8.000000)">
                    <g transform="translate(6.567999, 0.000000)">
                        <mask id="mask-6" fill="white">
                            <use xlink:href="#path-5"></use>
                        </mask>
                        <g id="Clip-2"></g>
                        <path d="M4.1402034,10.7081617 C4.55438335,10.8092212 4.98671389,10.8639922 5.43199611,10.8639922 C5.87732393,10.8639922 6.30965447,10.8092668 6.72383443,10.7081617 C7.20259033,8.74621103 8.74625663,7.20259033 10.7082073,6.72378882 C10.8092668,6.30960887 10.8640378,5.87727832 10.8640378,5.43199611 C10.8640378,2.4319505 8.43204171,-4.56044875e-05 5.43199611,-4.56044875e-05 C2.43199611,-4.56044875e-05 1.29615749e-15,2.4319505 1.29615749e-15,5.43199611 C1.29615749e-15,5.87727832 0.0547709895,6.30960887 0.155830534,6.72378882 C2.11778119,7.20259033 3.66140188,8.74621103 4.1402034,10.7081617" id="Fill-1" fill="#7ABDF7" mask="url(#mask-6)"></path>
                    </g>
                    <g transform="translate(6.567999, 13.135980)">
                        <mask id="mask-8" fill="white">
                            <use xlink:href="#path-7"></use>
                        </mask>
                        <g id="Clip-4"></g>
                        <path d="M6.72383443,0.155830534 C6.30965447,0.054725385 5.87732393,2.59231498e-15 5.43199611,2.59231498e-15 C4.98671389,2.59231498e-15 4.55438335,0.0547709895 4.1402034,0.155830534 C3.66140188,2.11778119 2.11778119,3.66140188 0.155830534,4.1402034 C0.0547709895,4.55438335 1.29615749e-15,4.98671389 1.29615749e-15,5.43199611 C1.29615749e-15,8.43204171 2.43199611,10.8640378 5.43199611,10.8640378 C8.43204171,10.8640378 10.8640378,8.43204171 10.8640378,5.43199611 C10.8640378,4.98671389 10.8092668,4.55438335 10.7082073,4.1402034 C8.74625663,3.66140188 7.20263594,2.11778119 6.72383443,0.155830534" id="Fill-3" fill="#0D74F5" mask="url(#mask-8)"></path>
                    </g>
                    <path d="M18.5680039,6.56795373 C18.1227217,6.56795373 17.6903911,6.62272472 17.2762112,6.72378426 C16.7974097,8.68573492 15.253789,10.2294012 13.2918383,10.7081571 C13.1907332,11.1223371 13.1360078,11.5546676 13.1360078,11.9999954 C13.1360078,12.4452777 13.1907788,12.8776082 13.2918383,13.2917882 C15.253789,13.7705897 16.7974097,15.3142104 17.2762112,17.276161 C17.6903911,17.3772206 18.1227217,17.4319915 18.5680039,17.4319915 C21.5680495,17.4319915 24,15.000041 24,11.9999954 C24,8.99999544 21.5680495,6.56795373 18.5680039,6.56795373" id="Fill-5" fill="#4494F7"></path>
                    <g transform="translate(0.000000, 6.567977)">
                        <mask id="mask-10" fill="white">
                            <use xlink:href="#path-9"></use>
                        </mask>
                        <g id="Clip-8"></g>
                        <path d="M10.7082027,6.72383443 C10.8092623,6.30965447 10.8640333,5.87732393 10.8640333,5.43199611 C10.8640333,4.98671389 10.8092623,4.55438335 10.7082027,4.1402034 C8.74625207,3.66140188 7.20263138,2.11778119 6.72382986,0.155830534 C6.30964991,0.0547709895 5.87731937,0 5.43203715,0 C2.43199155,0 -4.56044875e-06,2.43199611 -4.56044875e-06,5.43199611 C-4.56044875e-06,8.43204171 2.43199155,10.8640378 5.43203715,10.8640378 C5.87731937,10.8640378 6.30964991,10.8092668 6.72382986,10.7082073 C7.20263138,8.74621103 8.74625207,7.20263594 10.7082027,6.72383443" id="Fill-7" fill="#005CF4" mask="url(#mask-10)"></path>
                    </g>
                    <path d="M13.2918338,10.7081617 C15.2537844,10.2293602 16.7974051,8.68573948 17.2762066,6.72378882 C15.314256,7.20259033 13.7706353,8.74621103 13.2918338,10.7081617" id="Fill-9" fill="#186EF9"></path>
                    <path d="M13.2918338,13.291811 C13.7706353,15.2537616 15.314256,16.7973823 17.2762066,17.2761838 C16.7974051,15.3141876 15.2537844,13.7706125 13.2918338,13.291811" id="Fill-11" fill="#0246F2"></path>
                    <path d="M10.7082027,10.7081617 C10.2294012,8.74621103 8.68578052,7.20259033 6.72382986,6.72378882 C7.20263138,8.68573948 8.74625207,10.2293602 10.7082027,10.7081617" id="Fill-13" fill="#0046F8"></path>
                    <path d="M10.7082027,13.291811 C8.74625207,13.7706125 7.20263138,15.3141876 6.72382986,17.2761838 C8.68578052,16.7973823 10.2294012,15.2537616 10.7082027,13.291811" id="Fill-15" fill="#0729F1"></path>
                </g>
            </g>
        </g>
    </g>
</svg>