<?xml version="1.0" encoding="utf-8"?>
<!-- Generator: Adobe Illustrator 24.3.0, SVG Export Plug-In . SVG Version: 6.00 Build 0)  -->
<svg version="1.1" id="Layer_1" xmlns="http://www.w3.org/2000/svg" xmlns:xlink="http://www.w3.org/1999/xlink" x="0px" y="0px"
	 viewBox="0 0 800 800" style="enable-background:new 0 0 800 800;" xml:space="preserve">
<style type="text/css">
	.st0{fill:#FF7900;}
	.st1{fill:#FFFFFF;}
</style>
<g>
	<path class="st0" d="M401,801L401,801C181,801,1,621,1,401v0C1,181,181,1,401,1h0c220,0,400,180,400,400v0C801,621,621,801,401,801
		z"/>
	<g id="Group_9361_1_" transform="translate(-21496.234 -16251)">
		<path id="Joint_43_1_" class="st1" d="M21859.78,16902.8l-119-115.6l-0.11-0.12c98.79,42.21,210.56,42.06,309.24-0.41
			l-115.6,115.61c-20.53,20.5-53.72,20.73-74.54,0.52H21859.78z M21703.32,16737.21c-14.59-26.33-23.47-55.43-26.08-85.42
			c131.35,90.28,304.76,90.28,436.11,0c-2.57,29.82-11.28,58.79-25.6,85.08c-117.41,74.07-266.91,74.19-384.44,0.3
			L21703.32,16737.21z M21788.13,16676.98v-21.71c-0.07-5.59,0.3-11.18,1.13-16.72c3.99-24.64,16.55-47.09,35.47-63.36
			c39.15-33.24,96.15-34.73,136.98-3.59c21.16,16.41,35.31,40.22,39.61,66.65c0.83,5.67,1.21,11.39,1.13,17.11v23.75
			c-70.09,20.41-144.65,19.66-214.32-2.15V16676.98z M22028.72,16655.38c0.1-7.12-0.39-14.22-1.47-21.26
			c-5.35-32.88-22.94-62.52-49.26-82.96c-58.25-45.62-142.46-35.38-188.07,22.87c-13.79,17.59-22.94,38.36-26.64,60.39
			c-1.03,6.9-1.51,13.87-1.43,20.85v12.17c-29.44-11.88-56.93-28.15-81.5-48.25c3.76-57.06,29.95-110.31,72.87-148.1
			c81.41-71.41,202.55-73.37,286.22-4.63c45.98,37.94,74.14,93.25,77.8,152.74c-26.56,21.67-56.46,38.91-88.51,51.04V16655.38z"/>
	</g>
</g>
</svg>
