<svg viewBox="1 1 22 22" fill="none" xmlns="http://www.w3.org/2000/svg"><g clip-path="url(#clip0)"><path d="M12 22c5.523 0 10-4.477 10-10S17.523 2 12 2 2 6.477 2 12s4.477 10 10 10z" fill="#fff"/><path d="M6.11 7.664h6.456a.195.195 0 00.196-.195v-2.88a.195.195 0 00-.18-.194 7.576 7.576 0 00-3.55.577 7.603 7.603 0 00-3.078 2.379.195.195 0 00.155.313z" fill="#54A1CE"/><path d="M12 2C6.477 2 2 6.477 2 12c0 5.485 4.515 10 10 10 5.523 0 10-4.477 10-10 0-5.485-4.515-10-10-10zm3.105 2.053c0-.14.142-.234.271-.18l.049.02c.256.108.506.228.749.359.063.034.103.1.103.172V9.11c0 .108.088.196.195.196h3.75c.086 0 .162.056.187.138.08.263.148.53.203.799a.196.196 0 01-.192.235H15.3a.195.195 0 01-.195-.196V4.053zM3.377 10.242a8.77 8.77 0 012.402-4.463A8.768 8.768 0 0112 3.2c.603 0 1.197.06 1.777.18.091.018.157.098.157.19v5.07a.195.195 0 01-.196.195H5.185a.195.195 0 00-.179.116 7.586 7.586 0 00-.45 1.372.195.195 0 01-.19.153h-.798a.196.196 0 01-.191-.235zm9.19 3.535h-1.348a.195.195 0 00-.196.196v.78a.195.195 0 01-.195.196h-.781a.195.195 0 01-.195-.195v-4.55c0-.109.087-.196.195-.196h3.691c.108 0 .196.087.196.195v4.55a.195.195 0 01-.196.196h-.781a.195.195 0 01-.195-.195v-.781a.195.195 0 00-.196-.196zm-3.438 6.264a.195.195 0 01-.264.183 8.785 8.785 0 01-3.087-2.002 8.766 8.766 0 01-2.575-6.381.196.196 0 01.195-.193H8.66c.108 0 .195.088.195.196v.781a.195.195 0 01-.195.195H4.637a.196.196 0 00-.194.223c.059.429.153.85.284 1.262a.196.196 0 00.186.136H8.66c.108 0 .195.088.195.196v.781a.195.195 0 01-.195.195H5.617a.195.195 0 00-.168.295 7.627 7.627 0 002.201 2.358c.13.09.307-.003.307-.16v-1.79c0-.107.088-.195.195-.195h6.758a.195.195 0 00.195-.195v-4.082c0-.108.088-.196.196-.196h5.296c.109 0 .196.089.196.197-.002.216-.009.552-.02.789a.195.195 0 01-.195.186h-4.105a.195.195 0 00-.196.196v1.23c0 .108.088.195.196.195h3.719c.132 0 .226.13.186.256a8.721 8.721 0 01-.353.916h-3.552a.195.195 0 00-.196.196v2.127c0 .16.184.253.313.156a7.655 7.655 0 001.29-1.235.196.196 0 01.152-.072h.985c.159 0 .25.18.159.31a8.837 8.837 0 01-3.8 3.033.196.196 0 01-.27-.18v-2.46a.195.195 0 00-.196-.195h-.938a.195.195 0 00-.195.195v2.978a.195.195 0 01-.159.192c-.264.05-.53.087-.799.112a.196.196 0 01-.214-.194v-3.088a.195.195 0 00-.195-.195h-.742a.195.195 0 00-.195.195v3.096a.196.196 0 01-.213.195 8.79 8.79 0 01-.798-.103.195.195 0 01-.161-.192v-2.996a.195.195 0 00-.196-.195H9.13" fill="#54A1CE"/></g><defs><clipPath id="clip0"><path fill="#fff" transform="translate(2 2)" d="M0 0h20v20H0z"/></clipPath></defs></svg>