<?xml version="1.0" encoding="iso-8859-1"?>
<!-- Generator: Adobe Illustrator 24.0.1, SVG Export Plug-In . SVG Version: 6.00 Build 0)  -->
<svg version="1.1" id="&#x56FE;&#x5C42;_1" xmlns="http://www.w3.org/2000/svg" xmlns:xlink="http://www.w3.org/1999/xlink" x="0px"
	 y="0px" viewBox="0 0 512 512" style="enable-background:new 0 0 512 512;" xml:space="preserve">
<title>coin</title>
<circle style="fill:#FFFFFF;" cx="256.5" cy="257.5" r="250"/>
<linearGradient id="SVGID_1_" gradientUnits="userSpaceOnUse" x1="55.9569" y1="256.7976" x2="458.9986" y2="256.7976">
	<stop  offset="0" style="stop-color:#2357EB"/>
	<stop  offset="1" style="stop-color:#011E80"/>
</linearGradient>
<path style="fill:url(#SVGID_1_);" d="M126,405c-7.841,0.56-15.718,0.4-23.53-0.48c-4.92-0.591-9.753-1.759-14.4-3.48
	c-2.241-0.839-4.391-1.901-6.42-3.17c-1.384-0.921-2.674-1.976-3.85-3.15c-1.182-1.225-2.259-2.546-3.22-3.95
	c-1.895-2.82-3.323-5.926-4.23-9.2c-1.692-6.938-1.757-14.173-0.19-21.14c3-14.52,9.82-28.74,18-42
	c8.364-13.373,17.668-26.135,27.84-38.19c5.82-7.007,11.84-13.857,18.06-20.55l-12.29-8.78l-0.85-0.62
	c-17.35,18.27-33.39,38-46.14,60.28c-4.226,7.32-7.945,14.921-11.13,22.75c-3.325,8.018-5.652,16.414-6.93,25
	c-1.467,9.026-0.813,18.27,1.91,27c1.508,4.488,3.789,8.678,6.74,12.38c1.455,1.853,3.071,3.573,4.83,5.14
	c1.824,1.583,3.804,2.977,5.91,4.16c8.31,4.56,17.12,6,25.59,6.42c8.364,0.318,16.738-0.198,25-1.54c14.73-2.31,29-7,42.73-12.28
	l0.64-2.23c-4.26,1.28-10.76,3-14.58,3.79C145.753,403.075,135.903,404.357,126,405z M220.84,182.13c5.72-4.07,11.56-8,17.44-11.84
	l2.25-6.81l3.72-11.14c-10.453,6.067-20.693,12.49-30.72,19.27c-13.57,9.19-26.72,19.17-39.33,29.6
	c-9.66,7.92-19.15,16.09-28.38,24.54l22.33-0.18c16.588-15.63,34.19-30.148,52.69-43.46V182.13z M366.07,234.86h-71.63
	c-4.61-15.41-8.71-28.86-13.44-44.22c-4.89-16-9.92-32.11-15-48.07l-4.25-13.47l-4.52,13.47l-8,23.88l-7.88,23.9l-14.57,44.17
	l-46.61,0.15L155,234.8l-25.17,0.24l-14.25,0.15l11.56,8.23c13.7,9.733,27.397,19.43,41.09,29.09L188.78,287l18.89,13.14
	c-3.76,12.667-7.447,25.363-11.06,38.09l-5.68,20.21l-10.37,36.32v0.17L366,234.87L366.07,234.86z M444.56,111.4
	C426,96.79,382.79,88.64,273.79,136.61l3.44,10.93c0,0,114.9-56.82,154.77-32.87c62.72,37.67-53.09,130.79-123.64,182.91L309,300
	c3.86,14.74,7.95,29.38,11.93,44.07l9.1,32.19l-27.78-18.56c-12.74-8.32-25.37-16.77-38.21-24.95l-2.15-1.36l-1.89,1.43l-20,15.25
	l-19.91,15.41l-19.81,15.57c-6.59,5.21-13.24,10.57-19.75,15.89c7.06-4.55,14.22-9.23,21.2-13.89l20.94-14l20.79-14.2l18.62-12.91
	c11.74,8.39,23.63,16.57,35.45,24.84l37.68,25.79l10.37,7.11L342,385.59l-12.84-43.8c-4.16-13.79-8.29-27.63-12.65-41.39
	c-0.05,0,196.35-135.12,128.07-189L444.56,111.4z"/>
</svg>
